<?xml version="1.0" encoding="iso-8859-1"?>
<!-- Generator: Adobe Illustrator 19.0.0, SVG Export Plug-In . SVG Version: 6.00 Build 0)  -->
<svg version="1.1" id="Capa_1" xmlns="http://www.w3.org/2000/svg" xmlns:xlink="http://www.w3.org/1999/xlink" x="0px" y="0px"
	 viewBox="0 0 512.001 512.001" style="enable-background:new 0 0 512.001 512.001;" xml:space="preserve">
<rect x="10.002" y="10" style="fill:#C8F5FF;" width="383.994" height="247.996"/>
<path style="fill:#F5B955;" d="M110.001,165.997h184.004c15.464,0,28-12.536,28-28l0,0c0-15.464-12.536-28-28-28H110.001
	c-15.464,0-28,12.536-28,28l0,0C82.002,153.462,94.538,165.997,110.001,165.997z"/>
<circle style="fill:#FF6E37;" cx="369.996" cy="370.004" r="131.998"/>
<g>
	<path style="fill:#FF9155;" d="M239.094,370.002c0,38.402,16.537,72.943,42.877,96.889c26.341-23.946,42.877-58.486,42.877-96.889
		s-16.537-72.943-42.877-96.889C255.63,297.058,239.094,331.599,239.094,370.002z"/>
	<path style="fill:#FF9155;" d="M500.906,370.002c0,38.402-16.537,72.943-42.877,96.889c-26.341-23.946-42.877-58.486-42.877-96.889
		s16.537-72.943,42.877-96.889C484.369,297.058,500.906,331.599,500.906,370.002z"/>
</g>
<path d="M81.989,247.996H20.006V20H384v170.997c0,5.523,4.478,10,10,10s10-4.477,10-10V10c0-5.523-4.478-10-10-10H10.006
	c-5.522,0-10,4.477-10,10v247.996c0,5.523,4.478,10,10,10h71.983c5.522,0,10-4.477,10-10S87.512,247.996,81.989,247.996z"/>
<path d="M123.124,322.995c-2.641,0-5.21,1.07-7.07,2.93c-1.87,1.86-2.93,4.44-2.93,7.07c0,2.63,1.06,5.21,2.93,7.07
	c1.86,1.86,4.43,2.93,7.07,2.93c2.63,0,5.199-1.07,7.069-2.93c1.86-1.86,2.931-4.44,2.931-7.07c0-2.63-1.07-5.21-2.931-7.07
	C128.323,324.065,125.754,322.995,123.124,322.995z"/>
<path d="M123.12,44.999c-5.522,0-10,4.477-10,10s4.478,10,10,10h198.884c5.522,0,10-4.477,10-10s-4.478-10-10-10H123.12z"/>
<path d="M82.256,44.999c-5.522,0-10,4.477-10,10s4.478,10,10,10h0.223c5.522,0,10-4.477,10-10s-4.478-10-10-10H82.256z"/>
<path d="M370,228.004c-29.216,0-56.397,8.873-78.998,24.061c0.79-23.461,6.029-46.229,15.629-67.765l5.845-13.111
	c11.637-6.503,19.527-18.94,19.527-33.19c0-20.953-17.047-37.999-37.999-37.999H110.001c-20.953,0-37.999,17.047-37.999,37.999
	c0,14.251,7.89,26.689,19.527,33.19l3.901,8.751c11.738,26.333,17.69,54.303,17.69,83.135v31.672c0,5.523,4.478,10,10,10
	c5.522,0,10-4.477,10-10v-31.672c0-5.667-0.219-11.303-0.636-16.905l16.454,21.484c-0.059,0.44-0.101,0.886-0.101,1.343v51.499
	c0,5.523,4.478,10,10,10c5.522,0,10-4.477,10-10V293.47l25.354,33.105c1.893,2.471,4.827,3.92,7.939,3.92s6.047-1.449,7.939-3.92
	l61.164-80.029c-0.224,3.901-0.348,7.818-0.348,11.754v10.125c-26.439,25.804-42.883,61.803-42.883,101.577
	c0,78.298,63.7,141.998,141.998,141.998s141.998-63.7,141.998-141.998S448.298,228.004,370,228.004z M110.001,119.998h184.003
	c9.925,0,18,8.075,18,18s-8.075,18-18,18H110.001c-9.925,0-18-8.075-18-18S100.076,119.998,110.001,119.998z M202.003,201.05
	l-19.187-25.053h38.373L202.003,201.05z M115.505,175.997h26.802l-18.268,23.853C121.661,191.782,118.81,183.827,115.505,175.997z
	 M162.563,182.444l26.846,35.052l-26.846,35.052l-26.847-35.052L162.563,182.444z M202.13,304.048l-26.909-35.135l26.782-34.969
	l26.909,35.135L202.13,304.048z M241.443,252.549l-26.845-35.052l26.846-35.052l26.847,35.052L241.443,252.549z M261.698,175.997
	h26.738l-0.071,0.159c-3.401,7.629-6.295,15.4-8.709,23.288L261.698,175.997z M491.586,360.002h-66.012
	c2.3-27.546,14.037-53.612,33.173-73.619C477.205,305.961,489.272,331.622,491.586,360.002z M380,360.002V248.416
	c23.891,1.948,45.852,10.809,63.882,24.574c-22.435,23.658-36.035,54.502-38.362,87.013H380z M360,360.002h-25.52
	c-2.328-32.51-15.928-63.355-38.362-87.013c18.031-13.765,39.992-22.626,63.882-24.574V360.002z M360,380.002v111.586
	c-23.891-1.948-45.852-10.809-63.883-24.574c22.436-23.658,36.035-54.502,38.363-87.013H360z M380,380.002h25.52
	c2.328,32.51,15.928,63.355,38.363,87.013C425.852,480.78,403.891,489.64,380,491.588V380.002z M281.253,286.383
	c19.137,20.007,30.874,46.073,33.173,73.619h-66.012C250.727,331.622,262.796,305.961,281.253,286.383z M248.414,380.002h66.012
	c-2.3,27.546-14.037,53.612-33.173,73.619C262.796,434.042,250.727,408.382,248.414,380.002z M458.748,453.621
	c-19.137-20.007-30.874-46.073-33.173-73.619h66.012C489.272,408.382,477.205,434.042,458.748,453.621z"/>
<g>
</g>
<g>
</g>
<g>
</g>
<g>
</g>
<g>
</g>
<g>
</g>
<g>
</g>
<g>
</g>
<g>
</g>
<g>
</g>
<g>
</g>
<g>
</g>
<g>
</g>
<g>
</g>
<g>
</g>
</svg>
