<?xml version="1.0" encoding="iso-8859-1"?>
<!-- Generator: Adobe Illustrator 18.1.1, SVG Export Plug-In . SVG Version: 6.00 Build 0)  -->
<svg version="1.1" id="Capa_1" xmlns="http://www.w3.org/2000/svg" xmlns:xlink="http://www.w3.org/1999/xlink" x="0px" y="0px"
	 viewBox="0 0 259.46 259.46" style="enable-background:new 0 0 259.46 259.46;" xml:space="preserve">
<g>
	<path style="fill:#030104;" d="M203.846,142.565c16.702-25.981,15.691-51.333-1.836-76.096L207.505,0l-27.042,27.964l-15.137,0.131
		V12.599h-11.919V28.2l-8.012,0.068V13.514h-11.921v14.858l-7.562,0.07V12.828h-11.919v15.718l-11.927,0.104V12.599h-8.712v16.126
		l-16.952,0.154L53.02,0.458l1.836,72.894c-16.424,23.383-17.963,46.76-1.378,70.135c-26.08,29.787-38.409,66.941-30.259,115.059
		l214.552,0.914C241.971,215.897,232.663,176.331,203.846,142.565z M131.59,116.383c7.34,0.201,12.322,2.516,12.148,8.78
		c-0.166,6.266-7.083,8.262-14.422,8.06c-7.338-0.201-12.321-2.516-12.149-8.78C117.334,118.177,124.251,116.182,131.59,116.383z
		 M86.203,91.107h25.67C109.85,106.229,88.462,106.008,86.203,91.107z M100.459,143.82c12.656,13.265,22.794,11.789,31.173,0
		c12.523,14.229,21.131,10.958,27.501,0C154.205,178.34,105.954,178.714,100.459,143.82z M149.235,91.107h25.671
		C172.881,106.229,151.495,106.008,149.235,91.107z"/>
</g>
<g>
</g>
<g>
</g>
<g>
</g>
<g>
</g>
<g>
</g>
<g>
</g>
<g>
</g>
<g>
</g>
<g>
</g>
<g>
</g>
<g>
</g>
<g>
</g>
<g>
</g>
<g>
</g>
<g>
</g>
</svg>
