<svg id="regular" enable-background="new 0 0 24 24" height="512" viewBox="0 0 24 24" width="512" xmlns="http://www.w3.org/2000/svg"><path d="m13.5 19.51c.02 1.19.59 2.3 1.5 3v.74c0 .41.34.75.75.75h7.5c.41 0 .75-.34.75-.75v-4.63c0-1.78-.69-3.45-1.93-4.73l-1.88-1.91c-.16-.16-.36-.24-.58-.23s-.42.12-.55.29l-1.16 1.5-2.06 2.68-2.18 2.82c-.11.14-.16.3-.16.47z" fill="#ffb74d"/><path d="m10.34 19.04-2.18-2.82-2.06-2.68-1.16-1.5c-.13-.17-.33-.28-.55-.29s-.42.07-.58.23l-1.88 1.91c-1.24 1.28-1.93 2.95-1.93 4.73v4.63c0 .41.34.75.75.75h7.5c.41 0 .75-.34.75-.75v-.74c.91-.7 1.48-1.81 1.5-3 0-.17-.05-.33-.16-.47z" fill="#ffb74d"/><path d="m19.25 20h-14.5c-.414 0-.75-.336-.75-.75v-17.5c0-.965.785-1.75 1.75-1.75h12.5c.965 0 1.75.785 1.75 1.75v17.5c0 .414-.336.75-.75.75z" fill="#eceff1"/><path d="m8.49 13.76c-.2-.39-.58-.66-1.02-.74-.45-.07-.91.07-1.23.38l-.14.14-3.31 3.2-2.79 2.6v3.91c0 .41.34.75.75.75h4.25v-1.217l1.52-1.233c.44-.54.68-1.19.68-1.88 0-.58-.17-1.13-.47-1.6l1.43-1.85.12-.15c.51-.66.6-1.57.21-2.31z" fill="#ffcc80"/><path d="m15.72 16.07.12.15 1.43 1.85c-.3.47-.47 1.02-.47 1.6 0 .69.24 1.34.68 1.88l1.52 1.233v1.217h4.25c.41 0 .75-.34.75-.75v-3.91l-2.79-2.6-3.31-3.2-.14-.14c-.32-.31-.78-.45-1.23-.38-.44.08-.82.35-1.02.74-.39.74-.3 1.65.21 2.31z" fill="#ffcc80"/><path d="m17.417 20h-10.917c-.414 0-.75-.336-.75-.75s.336-.75.75-.75h10.917c.414 0 .75.336.75.75s-.336.75-.75.75z"/><path d="m19.25 16.57c-.414 0-.75-.336-.75-.75v-14.07c0-.138-.112-.25-.25-.25h-12.5c-.138 0-.25.112-.25.25v14.07c0 .414-.336.75-.75.75s-.75-.336-.75-.75v-14.07c0-.965.785-1.75 1.75-1.75h12.5c.965 0 1.75.785 1.75 1.75v14.07c0 .414-.336.75-.75.75z"/><path d="m5.768 22.004c-.196 0-.393-.077-.54-.229-.288-.298-.279-.773.02-1.061.291-.281.452-.653.452-1.048s-.161-.767-.453-1.048c-.276-.267-.307-.698-.071-1.001l1.919-2.467c.134-.173.173-.391.11-.592l-3.387 3.266c-.297.288-.771.279-1.061-.02-.288-.298-.279-.773.02-1.061l3.466-3.342c.321-.309.778-.45 1.223-.379.447.073.821.343 1.027.739.385.742.3 1.648-.214 2.31l-1.552 1.995c.308.475.473 1.025.473 1.6 0 .806-.324 1.562-.912 2.128-.145.141-.333.21-.52.21z"/><path d="m8.25 24h-7.5c-.414 0-.75-.336-.75-.75v-4.63c0-1.776.687-3.455 1.935-4.726l1.879-1.919c.289-.297.765-.301 1.061-.012.296.29.301.765.011 1.061l-1.88 1.92c-.971.99-1.506 2.295-1.506 3.676v3.88h6v-.38c0-.264.139-.509.365-.644.685-.409 1.12-1.172 1.135-1.99.008-.415.347-.762.764-.736.414.008.744.35.736.764-.022 1.182-.587 2.295-1.5 3.001v.735c0 .414-.336.75-.75.75z"/><path d="m18.232 22.004c-.188 0-.375-.069-.521-.21-.588-.566-.912-1.322-.912-2.128 0-.575.165-1.125.474-1.599l-1.552-1.995c-.515-.661-.599-1.567-.215-2.309.206-.397.581-.667 1.027-.74.448-.072.902.069 1.224.379l3.466 3.342c.298.287.307.763.02 1.061-.287.299-.762.308-1.061.02l-3.387-3.266c-.063.2-.024.419.11.592l1.919 2.467c.236.303.205.734-.071 1.001-.292.281-.453.653-.453 1.048s.161.767.453 1.048c.298.287.307.763.02 1.061-.148.151-.344.228-.541.228z"/><path d="m23.25 24h-7.5c-.414 0-.75-.336-.75-.75v-.735c-.913-.706-1.478-1.819-1.5-3.001-.008-.414.322-.756.736-.764.399.011.756.321.764.736.015.818.45 1.581 1.135 1.99.227.135.365.38.365.644v.38h6v-3.88c0-1.381-.535-2.687-1.505-3.675l-1.881-1.921c-.29-.296-.285-.771.011-1.061.296-.288.771-.284 1.061.012l1.88 1.92c1.247 1.27 1.934 2.949 1.934 4.725v4.63c0 .414-.336.75-.75.75z"/></svg>