<svg width="404" height="400" viewBox="0 0 404 400" fill="none" xmlns="http://www.w3.org/2000/svg">
<path d="M159.804 77.5H163.338C171.087 77.5 178.809 78.3963 186.352 80.171L200.5 83.5L210.692 86.9654C220.386 90.2611 230.787 90.8904 240.807 88.7875C257.386 85.3079 274.539 85.6347 290.974 89.7434L297.079 91.2696C299.023 91.7558 300.926 92.3956 302.769 93.1832L355 115.5L365.187 121.04C376.888 127.404 385.494 138.258 389.024 151.101L398.819 186.744C400.598 193.219 401.5 199.903 401.5 206.618V227V240.888C401.5 245.285 401.061 249.671 400.189 253.98L393 289.5L381.832 326.387C378.324 337.974 372.2 348.6 363.933 357.444L360.417 361.205C356.827 365.045 352.665 368.307 348.079 370.876L328.554 381.81C321.263 385.893 313.21 388.434 304.895 389.276L278 392H238.5L200.352 388.532C196.456 388.178 192.59 387.545 188.783 386.639L155.617 378.742C153.542 378.248 151.506 377.6 149.528 376.804L116.83 363.65C111.63 361.558 106.703 358.84 102.16 355.555L87.8009 345.175C74.5141 335.57 64.0689 322.554 57.5693 307.503L49.9157 289.778C48.9734 287.596 48.2054 285.343 47.6191 283.039L34.5 231.5V191.253C34.5 176.653 38.1744 162.287 45.1846 149.48L56.1246 129.494C59.0267 124.192 62.6697 119.33 66.9436 115.056C79.82 102.18 95.3986 92.3282 112.551 86.2143L115.52 85.1562C129.735 80.0897 144.713 77.5 159.804 77.5Z" fill="url(#paint0_linear)" stroke="black" stroke-width="4"/>
<rect x="342" y="153" width="31" height="71" rx="15.5" fill="#FFAC92"/>
<rect x="342" y="153" width="31" height="71" rx="15.5" stroke="black"/>
<circle cx="340" cy="169" r="11" fill="black"/>
<circle cx="376" cy="169" r="11" fill="black"/>
<circle cx="336.333" cy="163.5" r="1.83333" fill="white"/>
<circle cx="380.833" cy="163.833" r="1.83333" fill="white"/>
<path d="M374.918 256.034L372.5 211H342.5L345.478 233.125C347.859 250.812 338.236 267.936 321.89 275.099L315.822 277.758C308.726 280.867 300.951 282.106 293.24 281.357C278.04 279.879 264.507 271.106 256.953 257.834L243.862 234.833C242.789 232.947 241.867 230.98 241.106 228.948L228.914 196.438C221.017 175.378 191.089 175.775 183.754 197.038L166.858 246.019C163.157 256.746 154.759 265.195 144.054 268.959L139.327 270.621C123.899 276.047 107.088 276.086 91.6349 270.732C67.6179 262.411 50.9272 240.506 49.2775 215.142L48.4879 203.001C48.1644 198.028 47.1047 193.13 45.3434 188.468L45.1297 187.902C43.2596 182.952 36.2019 183.114 34.5613 188.145L27.0316 211.237C25.3607 216.361 24.7306 221.767 25.1781 227.138C27.8397 259.077 47.8342 286.971 77.2264 299.751L78.8671 300.464C99.0162 309.224 121.553 310.841 142.746 305.046L144.078 304.682C163.039 299.497 178.719 286.163 186.882 268.281L200.969 237.425C202.746 233.534 208.272 233.526 210.06 237.412L226.05 272.173C234.775 291.142 252.332 304.555 272.927 307.988L285.251 310.042C300.764 312.627 316.692 310.752 331.181 304.635L349.315 296.978C365.627 290.091 375.867 273.714 374.918 256.034Z" fill="#FFAC92"/>
<path d="M107.688 166.972C71.3785 82.4218 38.767 162.456 27 213.042H48L66.3472 164.552C68.6849 158.374 76.6606 156.735 81.2449 161.491L88 168.5L96.5286 189.431C98.0925 193.269 94.3372 197.131 90.4568 195.674L88.1108 194.794C84.6866 193.508 82.8701 189.765 83.979 186.28C84.9633 183.187 85.5233 178.781 82.4176 177.835C80.4916 177.249 77.2108 177.554 71.3785 179.98C31.5387 192.988 153.075 272.661 107.688 166.972Z" fill="#FFAC92"/>
<path d="M222.303 251.364C225.688 248.557 229.336 244.588 233.521 242.914C233.877 242.772 234.139 242.775 234.497 242.696C235.221 242.535 236.134 242.309 236.784 241.923C237.938 241.24 239.394 240.856 240.659 240.35" stroke="black" stroke-linecap="round" stroke-linejoin="round"/>
<path d="M206 220.014C209.384 217.206 213.032 213.238 217.218 211.564C217.573 211.422 217.835 211.425 218.194 211.345C218.917 211.185 219.831 210.959 220.481 210.573C221.634 209.89 223.091 209.506 224.356 209" stroke="black" stroke-linecap="round" stroke-linejoin="round"/>
<path d="M190.731 246.672C186.606 245.151 181.343 243.983 177.797 241.201C177.496 240.964 177.367 240.736 177.119 240.466C176.617 239.92 175.963 239.243 175.304 238.874C174.134 238.218 173.072 237.15 172 236.309" stroke="black" stroke-linecap="round" stroke-linejoin="round"/>
<path d="M176.731 278.672C172.606 277.151 167.343 275.983 163.797 273.201C163.496 272.964 163.367 272.736 163.119 272.466C162.617 271.92 161.963 271.243 161.304 270.874C160.134 270.218 159.072 269.15 158 268.309" stroke="black" stroke-linecap="round" stroke-linejoin="round"/>
<path d="M134.815 300.23C132.699 296.376 129.492 292.042 128.64 287.616C128.568 287.24 128.621 286.984 128.611 286.616C128.59 285.875 128.541 284.936 128.285 284.224C127.832 282.962 127.731 281.46 127.474 280.122" stroke="black" stroke-linecap="round" stroke-linejoin="round"/>
<path d="M93.2145 297.027C93.3751 292.633 92.8454 287.269 94.3845 283.032C94.5153 282.672 94.6923 282.479 94.8717 282.159C95.2338 281.512 95.6736 280.68 95.8193 279.938C96.0779 278.623 96.7618 277.281 97.2271 276" stroke="black" stroke-linecap="round" stroke-linejoin="round"/>
<path d="M54.5348 276.322C56.8391 272.577 59.0206 267.648 62.447 264.719C62.7382 264.471 62.9873 264.39 63.3013 264.199C63.9352 263.815 64.7276 263.307 65.2197 262.734C66.0928 261.716 67.349 260.885 68.3848 260" stroke="black" stroke-linecap="round" stroke-linejoin="round"/>
<path d="M244 279C247.319 276.451 250.896 272.848 255 271.328C255.349 271.199 255.606 271.202 255.957 271.13C256.667 270.984 257.562 270.778 258.2 270.429C259.331 269.808 260.759 269.459 262 269" stroke="black" stroke-linecap="round" stroke-linejoin="round"/>
<path d="M279.392 304.04C279.743 299.871 279.489 294.799 281.129 290.742C281.269 290.397 281.444 290.21 281.627 289.901C281.997 289.278 282.449 288.478 282.62 287.771C282.923 286.517 283.627 285.227 284.123 284" stroke="black" stroke-linecap="round" stroke-linejoin="round"/>
<path d="M324.9 302.128C322.845 298.483 319.783 294.432 318.857 290.155C318.778 289.792 318.818 289.538 318.796 289.18C318.751 288.456 318.674 287.541 318.418 286.86C317.963 285.653 317.82 284.19 317.54 282.897" stroke="black" stroke-linecap="round" stroke-linejoin="round"/>
<path d="M227.286 256.87C232.124 254.574 236.926 252.238 241.81 250.067C242.541 249.742 243.272 249.528 244.068 249.528" stroke="black" stroke-linecap="round" stroke-linejoin="round"/>
<path d="M210.982 225.52C215.821 223.224 220.622 220.888 225.507 218.717C226.238 218.392 226.969 218.178 227.765 218.178" stroke="black" stroke-linecap="round" stroke-linejoin="round"/>
<path d="M192.999 239.601C188.586 236.565 184.158 233.581 179.831 230.443C179.184 229.973 178.632 229.448 178.233 228.759" stroke="black" stroke-linecap="round" stroke-linejoin="round"/>
<path d="M178.999 271.601C174.586 268.565 170.158 265.581 165.831 262.443C165.184 261.973 164.632 261.448 164.233 260.759" stroke="black" stroke-linecap="round" stroke-linejoin="round"/>
<path d="M141.165 296.38C139.825 291.194 138.44 286.037 137.233 280.831C137.052 280.051 136.98 279.293 137.131 278.511" stroke="black" stroke-linecap="round" stroke-linejoin="round"/>
<path d="M100.64 296.979C102.15 291.84 103.607 286.703 105.241 281.614C105.486 280.853 105.813 280.165 106.343 279.571" stroke="black" stroke-linecap="round" stroke-linejoin="round"/>
<path d="M61.0206 279.939C64.8661 276.211 68.664 272.457 72.5932 268.834C73.1814 268.291 73.8047 267.854 74.5588 267.599" stroke="black" stroke-linecap="round" stroke-linejoin="round"/>
<path d="M249 284C253.901 282.123 258.765 280.214 263.713 278.44C264.453 278.175 265.193 278 266 278" stroke="black" stroke-linecap="round" stroke-linejoin="round"/>
<path d="M286.455 303.712C288.369 298.825 290.234 293.944 292.255 289.092C292.557 288.366 292.926 287.701 293.47 287.105" stroke="black" stroke-linecap="round" stroke-linejoin="round"/>
<path d="M330.555 297.883C329.389 292.766 328.186 287.682 327.128 282.533C326.969 281.763 326.901 281.005 327.014 280.207" stroke="black" stroke-linecap="round" stroke-linejoin="round"/>
<path d="M230.695 265.262C235.744 262.279 240.904 259.031 246.37 256.87C247.189 256.547 247.966 256.096 248.788 255.822" stroke="black" stroke-linecap="round" stroke-linejoin="round"/>
<path d="M214.391 233.912C219.44 230.929 224.601 227.681 230.066 225.52C230.885 225.197 231.663 224.745 232.485 224.471" stroke="black" stroke-linecap="round" stroke-linejoin="round"/>
<path d="M198.551 232.445C193.44 229.571 188.042 226.733 183.433 223.087C182.742 222.541 181.962 222.094 181.313 221.52" stroke="black" stroke-linecap="round" stroke-linejoin="round"/>
<path d="M184.551 264.445C179.44 261.571 174.042 258.733 169.433 255.087C168.742 254.541 167.962 254.094 167.313 253.52" stroke="black" stroke-linecap="round" stroke-linejoin="round"/>
<path d="M150.049 294.621C148.076 289.098 145.864 283.416 144.776 277.64C144.613 276.775 144.317 275.926 144.204 275.067" stroke="black" stroke-linecap="round" stroke-linejoin="round"/>
<path d="M109.17 300.026C110.308 294.274 111.323 288.261 113.353 282.745C113.657 281.919 113.838 281.038 114.181 280.243" stroke="black" stroke-linecap="round" stroke-linejoin="round"/>
<path d="M66.9424 286.792C70.7671 282.347 74.6122 277.614 79.0953 273.814C79.767 273.244 80.3584 272.567 81.0491 272.044" stroke="black" stroke-linecap="round" stroke-linejoin="round"/>
<path d="M252 292C257.023 289.157 262.157 286.06 267.594 284C268.409 283.691 269.182 283.261 270 283" stroke="black" stroke-linecap="round" stroke-linejoin="round"/>
<path d="M294.389 306.882C295.67 301.255 296.839 295.374 298.979 289.967C299.299 289.157 299.502 288.296 299.86 287.516" stroke="black" stroke-linecap="round" stroke-linejoin="round"/>
<path d="M338.899 296.042C336.793 290.668 334.452 285.149 333.179 279.475C332.989 278.625 332.672 277.799 332.529 276.952" stroke="black" stroke-linecap="round" stroke-linejoin="round"/>
<path d="M236.988 271.293C242.606 268.181 247.968 264.483 254.295 262.902" stroke="black" stroke-linecap="round" stroke-linejoin="round"/>
<path d="M220.685 239.943C226.303 236.831 231.665 233.133 237.992 231.552" stroke="black" stroke-linecap="round" stroke-linejoin="round"/>
<path d="M200.615 223.976C195.107 220.674 189.219 217.888 184.679 213.206" stroke="black" stroke-linecap="round" stroke-linejoin="round"/>
<path d="M186.615 255.976C181.107 252.674 175.219 249.888 170.679 245.206" stroke="black" stroke-linecap="round" stroke-linejoin="round"/>
<path d="M157.163 289.582C155.171 283.477 152.554 277.512 152.198 271" stroke="black" stroke-linecap="round" stroke-linejoin="round"/>
<path d="M117.86 299.35C119.282 293.087 120.096 286.624 123.13 280.852" stroke="black" stroke-linecap="round" stroke-linejoin="round"/>
<path d="M74.8389 290.484C79.1612 285.734 83.0526 280.511 88.5372 276.982" stroke="black" stroke-linecap="round" stroke-linejoin="round"/>
<path d="M259 298C264.519 295.033 269.785 291.508 276 290" stroke="black" stroke-linecap="round" stroke-linejoin="round"/>
<path d="M303.539 305.749C305.063 299.672 306.004 293.405 309.075 287.795" stroke="black" stroke-linecap="round" stroke-linejoin="round"/>
<path d="M345.826 289.959C343.668 284.077 340.921 278.365 340.305 272" stroke="black" stroke-linecap="round" stroke-linejoin="round"/>
<path d="M49.4451 268.547C51.431 266.115 53.3345 263.464 55.7805 261.507C56.2582 261.125 56.3778 260.331 56.8286 259.881C57.3554 259.354 58.3895 258.261 58.7371 257.565" stroke="black" stroke-linecap="round" stroke-linejoin="round"/>
<path d="M44.9397 259.537C46.1933 257.865 48.2263 254.836 50.4461 254.202C51.7767 253.822 53.6672 253.812 54.7949 253.06" stroke="black" stroke-linecap="round" stroke-linejoin="round"/>
<path d="M40.4346 248.555C42.7504 247.125 45.0383 245.758 47.474 244.675C48.3829 244.272 49.3919 244.217 50.2897 243.768" stroke="black" stroke-linecap="round" stroke-linejoin="round"/>
<path d="M35.9294 236.447C38.6471 235.635 41.4682 235.06 44.0952 234.038C44.9298 233.714 46.015 233.35 46.9109 233.35" stroke="black" stroke-linecap="round" stroke-linejoin="round"/>
<path d="M32.2688 223.213C36.4572 222.505 40.4458 222.087 44.6581 222.087" stroke="black" stroke-linecap="round" stroke-linejoin="round"/>
<path d="M33.6768 209.698C37.8373 209.541 42.365 209.698 46.3477 209.698" stroke="black" stroke-linecap="round" stroke-linejoin="round"/>
<path d="M35.9294 198.998C38.609 199.21 42.7646 198.931 45.2215 200.406" stroke="black" stroke-linecap="round" stroke-linejoin="round"/>
<path d="M39.0266 191.677C41.1172 191.818 46.1855 191.31 46.9107 194.211" stroke="black" stroke-linecap="round" stroke-linejoin="round"/>
<path d="M40.7161 184.637C44.3894 184.521 47.9617 183.486 51.416 184.637" stroke="black" stroke-linecap="round" stroke-linejoin="round"/>
<path d="M42.4055 177.316C44.8967 177.029 47.2142 176.472 49.7109 176.472C50.5678 176.472 51.1581 177.035 51.9791 177.035" stroke="black" stroke-linecap="round" stroke-linejoin="round"/>
<path d="M44.095 169.432C47.2454 169.432 50.1194 168.925 52.8238 170.277" stroke="black" stroke-linecap="round" stroke-linejoin="round"/>
<path d="M48.6003 162.111C52.7378 162.64 56.4014 162.55 58.7371 166.053" stroke="black" stroke-linecap="round" stroke-linejoin="round"/>
<path d="M51.416 155.635C54.4432 156.2 58.7313 156.463 59.8633 159.859" stroke="black" stroke-linecap="round" stroke-linejoin="round"/>
<path d="M58.7371 147.469C63.2942 148.679 70.5633 149.339 70.5633 155.353" stroke="black" stroke-linecap="round" stroke-linejoin="round"/>
<path d="M66.6211 139.585C69.8717 141.589 73.9466 143.515 76.6327 146.343C76.9734 146.702 77.4984 147.67 77.5869 148.158C77.8214 149.447 77.4253 150.535 77.0394 151.693" stroke="black" stroke-linecap="round" stroke-linejoin="round"/>
<path d="M87.1763 142.119C85.5374 146.168 83.6763 149.464 80.4185 152.256" stroke="black" stroke-linecap="round" stroke-linejoin="round"/>
<path d="M93.9341 151.693C92.1056 153.521 89.6793 155.645 87.1763 156.48" stroke="black" stroke-linecap="round" stroke-linejoin="round"/>
<path d="M97.5946 156.198C95.2272 159.294 92.8286 161.952 88.8657 162.393" stroke="black" stroke-linecap="round" stroke-linejoin="round"/>
<path d="M101.255 162.393C99.517 165.447 97.4617 167.105 94.4971 168.587" stroke="black" stroke-linecap="round" stroke-linejoin="round"/>
<path d="M103.508 171.966C102.066 173.106 99.9837 175.733 98.1577 176.19" stroke="black" stroke-linecap="round" stroke-linejoin="round"/>
<path d="M105.479 180.977C103.891 182.088 102.056 183.562 100.269 184.356C99.7375 184.592 99.3185 184.919 98.7207 184.919" stroke="black" stroke-linecap="round" stroke-linejoin="round"/>
<path d="M107.45 189.987C105.179 191.079 102.134 192.24 99.5654 192.24" stroke="black" stroke-linecap="round" stroke-linejoin="round"/>
<path d="M110.547 197.59C107.703 198.045 102.317 199.199 100.129 196.464" stroke="black" stroke-linecap="round" stroke-linejoin="round"/>
<path d="M112.518 206.882C108.805 206.824 104.873 206.558 102.1 203.784C101.335 203.019 100.997 201.403 100.129 200.969" stroke="black" stroke-linecap="round" stroke-linejoin="round"/>
<path d="M100.692 213.358C97.201 210.688 94.7788 207.078 94.7788 202.658" stroke="black" stroke-linecap="round" stroke-linejoin="round"/>
<path d="M86.8947 213.076C86.8947 209.442 85.5582 201.25 91.3999 201.25" stroke="black" stroke-linecap="round" stroke-linejoin="round"/>
<path d="M77.0396 205.474C78.3225 204.435 79.5405 203.255 80.7 202.095C81.1929 201.602 81.7995 200.655 82.3895 200.343C83.5168 199.746 85.7164 198.434 86.8947 198.434" stroke="black" stroke-linecap="round" stroke-linejoin="round"/>
<path d="M74.2236 197.871C77.2623 195.213 80.2245 192.803 84.3604 192.803" stroke="black" stroke-linecap="round" stroke-linejoin="round"/>
<path d="M71.408 191.958C74.2573 190.095 77.2694 188.861 80.7 188.861" stroke="black" stroke-linecap="round" stroke-linejoin="round"/>
<path d="M70.5632 185.2C73.322 183.999 75.9919 182.666 79.0105 182.666" stroke="black" stroke-linecap="round" stroke-linejoin="round"/>
<path d="M348.342 265.525C348.442 269.657 351.675 272.631 351.675 276.638C351.675 279.646 353.342 282.488 353.342 285.528" stroke="black" stroke-linecap="round" stroke-linejoin="round"/>
<path d="M350.564 262.747C356.211 265.226 358.224 272.392 360.01 277.749" stroke="black" stroke-linecap="round" stroke-linejoin="round"/>
<path d="M354.454 254.412C358.68 255.469 361.727 256.19 364.702 259.166C365.705 260.169 366.57 262.137 367.789 262.747" stroke="black" stroke-linecap="round" stroke-linejoin="round"/>
<path d="M244 35.0027C224.8 34.6027 216 79.5027 214 102.003H238C233.2 75.2026 246 55.5027 253 49.0027C258 44.5027 263.2 35.4027 244 35.0027Z" fill="#AE6C2F" stroke="black" stroke-width="6"/>
<defs>
<linearGradient id="paint0_linear" x1="57" y1="183" x2="319.5" y2="380.5" gradientUnits="userSpaceOnUse">
<stop stop-color="#83EC52"/>
<stop offset="1" stop-color="#EC5252"/>
</linearGradient>
</defs>
</svg>
